<svg xmlns="http://www.w3.org/2000/svg" viewBox="0 -960 960 960"><path d="M294.807-513Q315-513 329-527.307q14-14.307 14-34.5Q343-582 328.547-596q-14.454-14-34.863-14-19.984 0-33.834 14.453Q246-581.093 246-560.684q0 19.984 14.307 33.834 14.307 13.85 34.5 13.85Zm188.509 0Q504-513 517.5-527.307q13.5-14.307 13.5-34.5Q531-582 517.184-596q-13.816-14-34.5-14Q462-610 448.5-595.547 435-581.093 435-560.684q0 19.984 13.816 33.834 13.816 13.85 34.5 13.85Zm182 0q19.984 0 33.834-14.307 13.85-14.307 13.85-34.5Q713-582 698.693-596q-14.307-14-34.5-14Q644-610 630-595.547q-14 14.454-14 34.863 0 19.984 14.453 33.834Q644.907-513 665.316-513ZM216-217l-79 79q-22 22-50 11.188Q59-137.625 59-170v-639q0-37.588 26.912-64.794Q112.825-901 150-901h660q37.588 0 64.794 27.206Q902-846.588 902-809v501q0 37.175-27.206 64.087Q847.588-217 810-217H216Zm-25-91h619v-501H150v548l41-47Zm-41 0v-501 501Z" fill="currentColor"/></svg>