<svg viewBox="0 0 24 24" fill="none" xmlns="http://www.w3.org/2000/svg">
<path d="M4.5 21.625C3.92813 21.625 3.431 21.4138 3.0086 20.9914C2.5862 20.569 2.375 20.0719 2.375 19.5V4.5C2.375 3.93292 2.5862 3.43281 3.0086 2.99968C3.431 2.56656 3.92813 2.35 4.5 2.35H16.05L21.65 7.95V19.5C21.65 20.0719 21.4334 20.569 21.0003 20.9914C20.5672 21.4138 20.0671 21.625 19.5 21.625H4.5ZM7.5942 16.575H16.4108C16.6328 16.575 16.824 16.4984 16.9844 16.3451C17.1448 16.1919 17.225 16.002 17.225 15.7755C17.225 15.5489 17.143 15.3547 16.979 15.1928C16.8151 15.0309 16.624 14.95 16.4058 14.95H7.58917C7.36722 14.95 7.17604 15.0324 7.01562 15.1972C6.85521 15.362 6.775 15.5577 6.775 15.7842C6.775 16.0107 6.85698 16.1992 7.02093 16.3495C7.18489 16.4998 7.37598 16.575 7.5942 16.575ZM7.6 9.2H11.75C11.9721 9.2 12.1651 9.1176 12.3291 8.9528C12.493 8.788 12.575 8.59394 12.575 8.37063C12.575 8.14729 12.493 7.95469 12.3291 7.79283C12.1651 7.63094 11.9721 7.55 11.75 7.55H7.6C7.37792 7.55 7.18489 7.6324 7.02093 7.7972C6.85698 7.962 6.775 8.15606 6.775 8.37937C6.775 8.60271 6.85698 8.79531 7.02093 8.95718C7.18489 9.11906 7.37792 9.2 7.6 9.2ZM7.5942 12.9H16.4108C16.6328 12.9 16.824 12.8176 16.9844 12.6528C17.1448 12.488 17.225 12.2939 17.225 12.0706C17.225 11.8473 17.143 11.6547 16.979 11.4928C16.8151 11.3309 16.624 11.25 16.4058 11.25H7.58917C7.36722 11.25 7.17604 11.3324 7.01562 11.4972C6.85521 11.662 6.775 11.8561 6.775 12.0794C6.775 12.3027 6.85698 12.4953 7.02093 12.6572C7.18489 12.8191 7.37598 12.9 7.5942 12.9ZM15.875 9.3H19.275L14.7 4.725V8.125C14.7 8.45417 14.8135 8.73229 15.0406 8.95938C15.2677 9.18646 15.5458 9.3 15.875 9.3Z" fill="currentColor"/>
</svg>
