<svg viewBox="0 0 24 24" fill="none" xmlns="http://www.w3.org/2000/svg">
<path d="M11.925 21C9.5583 21 7.52914 20.2042 5.83747 18.6125C4.1458 17.0208 3.2083 15.0583 3.02497 12.725C3.0083 12.525 3.0708 12.35 3.21247 12.2C3.35414 12.05 3.5333 11.975 3.74997 11.975C3.94997 11.975 4.1208 12.0458 4.26247 12.1875C4.40414 12.3292 4.49164 12.5083 4.52497 12.725C4.7083 14.6417 5.49997 16.25 6.89997 17.55C8.29997 18.85 9.97497 19.5 11.925 19.5C14.0416 19.5 15.8333 18.7583 17.3 17.275C18.7666 15.7917 19.5 13.9917 19.5 11.875C19.5 9.80833 18.7583 8.0625 17.275 6.6375C15.7916 5.2125 14.0083 4.5 11.925 4.5C10.7916 4.5 9.72914 4.75833 8.73747 5.275C7.7458 5.79167 6.8833 6.475 6.14997 7.325H8.02497C8.24164 7.325 8.4208 7.39583 8.56247 7.5375C8.70414 7.67917 8.77497 7.85833 8.77497 8.075C8.77497 8.29167 8.70414 8.47083 8.56247 8.6125C8.4208 8.75417 8.24164 8.825 8.02497 8.825H4.29997C4.0833 8.825 3.90414 8.75417 3.76247 8.6125C3.6208 8.47083 3.54997 8.29167 3.54997 8.075V4.375C3.54997 4.15833 3.6208 3.97917 3.76247 3.8375C3.90414 3.69583 4.0833 3.625 4.29997 3.625C4.51664 3.625 4.6958 3.69583 4.83747 3.8375C4.97914 3.97917 5.04997 4.15833 5.04997 4.375V6.275C5.91664 5.25833 6.9458 4.45833 8.13747 3.875C9.32914 3.29167 10.5916 3 11.925 3C13.175 3 14.35 3.23333 15.45 3.7C16.55 4.16667 17.5125 4.80417 18.3375 5.6125C19.1625 6.42083 19.8125 7.36667 20.2875 8.45C20.7625 9.53333 21 10.7 21 11.95C21 13.2 20.7625 14.375 20.2875 15.475C19.8125 16.575 19.1625 17.5333 18.3375 18.35C17.5125 19.1667 16.55 19.8125 15.45 20.2875C14.35 20.7625 13.175 21 11.925 21ZM12.775 11.65L15.65 14.475C15.8 14.625 15.875 14.8042 15.875 15.0125C15.875 15.2208 15.8 15.4 15.65 15.55C15.5 15.7 15.325 15.775 15.125 15.775C14.925 15.775 14.75 15.7 14.6 15.55L11.5 12.5C11.4166 12.4167 11.3583 12.3292 11.325 12.2375C11.2916 12.1458 11.275 12.05 11.275 11.95V7.675C11.275 7.45833 11.3458 7.27917 11.4875 7.1375C11.6291 6.99583 11.8083 6.925 12.025 6.925C12.2416 6.925 12.4208 6.99583 12.5625 7.1375C12.7041 7.27917 12.775 7.45833 12.775 7.675V11.65Z" fill="currentColor"/>
</svg>
