<svg viewBox="0 0 24 24" fill="none" xmlns="http://www.w3.org/2000/svg">
<path d="M17.7461 20.5H6.61923V8.64235L13.2231 1.9039L13.7596 2.3135C13.9108 2.43402 14.014 2.56639 14.0692 2.71063C14.1243 2.85486 14.1519 3.01287 14.1519 3.18465V3.36735L13.075 8.64235H21.0576C21.4281 8.64235 21.7612 8.7901 22.0567 9.0856C22.3522 9.38112 22.5 9.71413 22.5 10.0847V11.7404C22.5 11.8981 22.4823 12.0769 22.4471 12.2769C22.4118 12.4769 22.3621 12.6493 22.298 12.7942L19.5038 19.3019C19.3602 19.6327 19.1224 19.915 18.7903 20.149C18.4583 20.383 18.1102 20.5 17.7461 20.5ZM5.48463 8.64235V20.5H2.5V8.64235H5.48463Z" fill="currentColor"/>
</svg>
