<svg viewBox="0 0 206 38" fill="none" xmlns="http://www.w3.org/2000/svg">
<path d="M0.488281 0.234375H12.5234L21.2578 21.6133H21.7148L30.4492 0.234375H42.4844V37H33.0391V15.3672H32.7344L24.3555 36.7461H18.5664L10.2383 15.2148H9.93359V37H0.488281V0.234375ZM47.7656 37V31.668L60.0547 16.8906V16.7383H48.2227V9.42578H71.3789V15.3164L60.1562 29.4844V29.6367H71.8359V37H47.7656ZM93.5195 9.42578V16.3828H88.6953V28.1641C88.6953 29.459 89.3301 29.9668 90.6758 30.043C91.3613 30.0684 92.7832 29.9922 93.875 29.8906V37.0508C92.9863 37.2285 91.4629 37.3809 89.3047 37.4062C82.627 37.3809 79.0215 34.8672 79.0977 29.1289V16.3828H75.543V9.42578H79.0977V2.82422H88.6953V9.42578H93.5195ZM97.6328 37V9.42578H106.926V14.6055H107.23C108.221 10.7969 110.557 9.04492 113.527 9.07031C114.365 9.04492 115.254 9.19727 116.016 9.375V17.6523C115.076 17.3223 113.451 17.1445 112.41 17.1445C109.414 17.1445 107.205 19.2773 107.23 22.4766V37H97.6328ZM131.555 37.5078C122.77 37.5078 117.412 32.2012 117.387 23.2891C117.412 14.7578 122.846 9.07031 131.352 9.07031C139.527 9.07031 144.936 14.3262 144.961 23.1875V25.4727H126.883V25.8281C126.883 28.6973 128.686 30.7031 131.758 30.7031C133.865 30.7031 135.516 29.8145 136.125 28.2148H144.91C143.971 33.9023 139.096 37.5078 131.555 37.5078ZM126.883 20.0898H136.074C136.049 17.6016 134.119 15.8496 131.555 15.875C128.99 15.8496 126.959 17.6016 126.883 20.0898ZM162.176 37.5078C153.391 37.5078 148.033 32.2012 148.008 23.2891C148.033 14.7578 153.467 9.07031 161.973 9.07031C170.148 9.07031 175.557 14.3262 175.582 23.1875V25.4727H157.504V25.8281C157.504 28.6973 159.307 30.7031 162.379 30.7031C164.486 30.7031 166.137 29.8145 166.746 28.2148H175.531C174.592 33.9023 169.717 37.5078 162.176 37.5078ZM157.504 20.0898H166.695C166.67 17.6016 164.74 15.8496 162.176 15.875C159.611 15.8496 157.58 17.6016 157.504 20.0898ZM195.742 18.3125C195.564 16.5859 193.914 15.4941 191.883 15.5195C190.08 15.4941 188.607 16.2305 188.633 17.4492C188.607 18.2871 189.242 19.0742 191.426 19.4805L196.91 20.4961C202.521 21.5117 205.238 23.8984 205.289 27.9609C205.238 33.8008 199.729 37.5078 192.137 37.5078C183.809 37.5078 179.01 33.8008 178.426 28.2148H187.973C188.277 29.9922 189.877 30.9824 192.188 31.0078C194.117 30.9824 195.488 30.2969 195.539 29.0781C195.488 27.9609 194.498 27.3516 192.289 26.9453L187.465 26.082C181.879 25.0664 179.086 22.2988 179.086 18.0078C179.086 12.2949 183.91 9.07031 191.68 9.07031C199.525 9.07031 204.299 12.5488 204.578 18.3125H195.742Z" fill="currentColor"/>
</svg>
