<svg viewBox="0 0 24 24" fill="none" xmlns="http://www.w3.org/2000/svg">
<path fill-rule="evenodd" clip-rule="evenodd" d="M7.7225 2C8.64083 2.015 12.3517 4.12417 13.0442 9.13167C13.7983 8.39083 14.2183 6.07833 14 5.09583C17.2933 7.57 19 10.7467 19 14.2908C19 18.5358 16.1417 22 11.5308 22C6.7575 22 4 18.8725 4 15.1033C4 9.88667 8.21 8.75333 7.7225 2ZM10.4408 18.4525C9.81667 19.1592 10.1342 20.0733 11.0767 20.1567C11.9392 20.2342 12.5425 19.48 12.77 18.6633C12.9975 17.8483 12.845 16.98 12.4625 16.2525C11.6308 17.515 11.1958 17.6192 10.4408 18.4525ZM14.1242 19.7925C16.1992 18.8375 17.3342 16.7233 17.3342 14.3092C17.3342 12.3442 16.5508 10.1617 15.2508 8.4425C14.6317 10.8317 12.8142 11.7575 11.5 12C11.5417 9.3175 11.235 6.8725 9.33167 4.96833C9.085 8.91167 5.73083 11.3267 5.66667 15.0633C5.6425 16.3225 6.095 17.7325 7.10833 18.7425C7.5175 19.15 7.98667 19.4683 8.495 19.7092C8.39417 19.2025 8.44333 18.6642 8.6575 18.1692C9.41667 16.4142 11.435 16.235 12.1592 13.3742C12.9525 13.9983 14.8883 16.2933 14.4742 18.6725C14.4058 19.0633 14.2875 19.4417 14.1242 19.7925Z" fill="currentColor"/>
</svg>
