<svg viewBox="0 0 24 24" fill="none" xmlns="http://www.w3.org/2000/svg">
<path d="M13.8 22.625H10.2C9.9 22.625 9.63334 22.5333 9.4 22.35C9.16667 22.1667 9.03334 21.925 9 21.625L8.625 19.275C8.40833 19.2083 8.1625 19.0958 7.8875 18.9375C7.6125 18.7792 7.38334 18.625 7.2 18.475L5.05 19.5C4.76667 19.6333 4.47917 19.65 4.1875 19.55C3.89584 19.45 3.675 19.2583 3.525 18.975L1.7 15.725C1.53334 15.4583 1.4875 15.1792 1.5625 14.8875C1.6375 14.5958 1.79167 14.3583 2.025 14.175L4.025 12.725C4.00834 12.625 3.99584 12.5042 3.9875 12.3625C3.97917 12.2208 3.975 12.1 3.975 12C3.975 11.9 3.97917 11.7792 3.9875 11.6375C3.99584 11.4958 4.00834 11.375 4.025 11.275L2.025 9.8C1.79167 9.61667 1.6375 9.37917 1.5625 9.0875C1.4875 8.79583 1.53334 8.525 1.7 8.275L3.525 5.025C3.69167 4.775 3.92084 4.59583 4.2125 4.4875C4.50417 4.37917 4.78333 4.39167 5.05 4.525L7.25 5.525C7.41667 5.39167 7.63334 5.25 7.9 5.1C8.16667 4.95 8.40833 4.84167 8.625 4.775L9 2.35C9.03334 2.05 9.16667 1.80833 9.4 1.625C9.63334 1.44167 9.9 1.35 10.2 1.35H13.8C14.1 1.35 14.3667 1.44167 14.6 1.625C14.8333 1.80833 14.9667 2.05 15 2.35L15.375 4.75C15.5917 4.83333 15.8375 4.94583 16.1125 5.0875C16.3875 5.22917 16.6167 5.375 16.8 5.525L18.95 4.525C19.2167 4.39167 19.5 4.375 19.8 4.475C20.1 4.575 20.325 4.75833 20.475 5.025L22.325 8.25C22.4917 8.51667 22.5375 8.8 22.4625 9.1C22.3875 9.4 22.225 9.63333 21.975 9.8L19.95 11.225C19.9667 11.3417 19.9833 11.4708 20 11.6125C20.0167 11.7542 20.025 11.8833 20.025 12C20.025 12.1167 20.0167 12.2417 20 12.375C19.9833 12.5083 19.9667 12.6333 19.95 12.75L21.975 14.175C22.2083 14.3583 22.3625 14.5958 22.4375 14.8875C22.5125 15.1792 22.475 15.4583 22.325 15.725L20.45 18.975C20.3 19.2583 20.0833 19.45 19.8 19.55C19.5167 19.65 19.2333 19.6333 18.95 19.5L16.775 18.475C16.5917 18.625 16.3708 18.7792 16.1125 18.9375C15.8542 19.0958 15.6083 19.2083 15.375 19.275L15 21.625C14.9667 21.925 14.8333 22.1667 14.6 22.35C14.3667 22.5333 14.1 22.625 13.8 22.625ZM11.95 15.25C12.85 15.25 13.6167 14.9333 14.25 14.3C14.8833 13.6667 15.2 12.9 15.2 12C15.2 11.1 14.8833 10.3333 14.25 9.7C13.6167 9.06667 12.85 8.75 11.95 8.75C11.05 8.75 10.2833 9.06667 9.65 9.7C9.01667 10.3333 8.7 11.1 8.7 12C8.7 12.9 9.01667 13.6667 9.65 14.3C10.2833 14.9333 11.05 15.25 11.95 15.25Z" fill="currentColor"/>
</svg>
