<svg viewBox="0 0 24 24" fill="none" xmlns="http://www.w3.org/2000/svg">
<path d="M12 11.975C10.9 11.975 10 11.625 9.3 10.925C8.6 10.225 8.25 9.325 8.25 8.225C8.25 7.125 8.6 6.225 9.3 5.525C10 4.825 10.9 4.475 12 4.475C13.1 4.475 14 4.825 14.7 5.525C15.4 6.225 15.75 7.125 15.75 8.225C15.75 9.325 15.4 10.225 14.7 10.925C14 11.625 13.1 11.975 12 11.975ZM4 20V17.65C4 17.0167 4.15833 16.475 4.475 16.025C4.79167 15.575 5.2 15.2333 5.7 15C6.81667 14.5 7.8875 14.125 8.9125 13.875C9.9375 13.625 10.9667 13.5 12 13.5C13.0333 13.5 14.0583 13.6292 15.075 13.8875C16.0917 14.1458 17.1583 14.5167 18.275 15C18.7917 15.2333 19.2083 15.575 19.525 16.025C19.8417 16.475 20 17.0167 20 17.65V20H4Z" fill="currentColor"/>
</svg>
