<svg viewBox="0 0 24 24" fill="none" xmlns="http://www.w3.org/2000/svg">
<path d="M11.325 17H12.825V12.85H17V11.35H12.825V7H11.325V11.35H7V12.85H11.325V17ZM12.0066 22C10.6278 22 9.33192 21.7375 8.11915 21.2125C6.90638 20.6875 5.84583 19.9708 4.9375 19.0625C4.02917 18.1542 3.3125 17.093 2.7875 15.879C2.2625 14.665 2 13.3678 2 11.9875C2 10.6072 2.2625 9.31003 2.7875 8.09602C3.3125 6.88201 4.02917 5.825 4.9375 4.925C5.84583 4.025 6.90701 3.3125 8.12103 2.7875C9.33503 2.2625 10.6322 2 12.0125 2C13.3928 2 14.69 2.2625 15.904 2.7875C17.118 3.3125 18.175 4.025 19.075 4.925C19.975 5.825 20.6875 6.88333 21.2125 8.1C21.7375 9.31667 22 10.6145 22 11.9934C22 13.3723 21.7375 14.6681 21.2125 15.8809C20.6875 17.0936 19.975 18.1526 19.075 19.0579C18.175 19.9632 17.1167 20.6798 15.9 21.2079C14.6833 21.736 13.3855 22 12.0066 22ZM12.0125 20.5C14.3708 20.5 16.375 19.6708 18.025 18.0125C19.675 16.3542 20.5 14.3458 20.5 11.9875C20.5 9.62917 19.6766 7.625 18.0297 5.975C16.3828 4.325 14.3729 3.5 12 3.5C9.65 3.5 7.64583 4.32343 5.9875 5.9703C4.32917 7.61718 3.5 9.62708 3.5 12C3.5 14.35 4.32917 16.3542 5.9875 18.0125C7.64583 19.6708 9.65417 20.5 12.0125 20.5Z" fill="currentColor"/>
</svg>
