<svg viewBox="0 0 24 24" fill="none" xmlns="http://www.w3.org/2000/svg">
<path d="M19.875 21.675L13.15 14.975C12.6667 15.357 12.0962 15.6567 11.4386 15.874C10.7809 16.0913 10.0681 16.2 9.30005 16.2C7.38068 16.2 5.75501 15.5333 4.42302 14.2C3.09104 12.8667 2.42505 11.2583 2.42505 9.375C2.42505 7.49167 3.09172 5.88333 4.42505 4.55C5.75838 3.21667 7.37088 2.55 9.26255 2.55C11.1542 2.55 12.7625 3.21667 14.0875 4.55C15.4125 5.88333 16.075 7.49292 16.075 9.37875C16.075 10.1262 15.9709 10.8208 15.7625 11.4625C15.5542 12.1042 15.2417 12.7083 14.825 13.275L21.575 19.975L19.875 21.675ZM9.28387 13.85C10.5322 13.85 11.5844 13.4146 12.4407 12.5437C13.2969 11.6729 13.725 10.6167 13.725 9.375C13.725 8.13333 13.2957 7.07708 12.437 6.20625C11.5783 5.33542 10.5273 4.9 9.28387 4.9C8.02661 4.9 6.96082 5.33542 6.0865 6.20625C5.2122 7.07708 4.77505 8.13333 4.77505 9.375C4.77505 10.6167 5.21097 11.6729 6.08282 12.5437C6.95469 13.4146 8.02171 13.85 9.28387 13.85Z" fill="currentColor"/>
</svg>
